<?xml version="1.0" encoding="utf-8"?>
<!-- Generator: Adobe Illustrator 15.1.0, SVG Export Plug-In  -->
<!DOCTYPE svg PUBLIC "-//W3C//DTD SVG 1.1//EN" "http://www.w3.org/Graphics/SVG/1.1/DTD/svg11.dtd" [
	<!ENTITY ns_flows "http://ns.adobe.com/Flows/1.0/">
]>
<svg version="1.1"
	 xmlns="http://www.w3.org/2000/svg" xmlns:xlink="http://www.w3.org/1999/xlink" xmlns:a="http://ns.adobe.com/AdobeSVGViewerExtensions/3.0/"
	 x="0px" y="0px" width="144px" height="106px" viewBox="-1.266 -1.011 144 106"
	 overflow="visible" enable-background="new -1.266 -1.011 144 106" xml:space="preserve">
<defs>
</defs>
<path fill-rule="evenodd" clip-rule="evenodd" fill="#0E5F97" d="M43.479,0h54.513c2.624,0,4.77,2.146,4.77,4.77v54.513
	c0,2.624-2.146,4.771-4.77,4.771H43.479c-2.624,0-4.771-2.146-4.771-4.771V4.77C38.708,2.146,40.854,0,43.479,0L43.479,0z
	 M95.208,6.787L95.208,6.787c-0.181-0.18-0.477-0.18-0.658,0L51.558,49.78c-0.181,0.18-0.181,0.476,0,0.656l0,0
	c0.182,0.181,0.476,0.181,0.656,0L95.208,7.443C95.387,7.262,95.387,6.967,95.208,6.787L95.208,6.787z M92.192,11.594L92.192,11.594
	c-0.188,0.011-0.332,0.172-0.322,0.359l0.853,15.324c0.013,0.188,0.172,0.332,0.359,0.321l0,0c0.188-0.01,0.331-0.172,0.321-0.359
	l-0.853-15.324C92.539,11.728,92.379,11.583,92.192,11.594L92.192,11.594z M90.354,9.757c0.011-0.187-0.133-0.349-0.32-0.359
	L74.709,8.545c-0.186-0.011-0.348,0.134-0.359,0.321v0c-0.01,0.187,0.135,0.348,0.322,0.358l15.324,0.854
	C90.183,10.088,90.344,9.944,90.354,9.757L90.354,9.757L90.354,9.757z M83.717,20.06L83.717,20.06
	c-0.173,0.01-0.308,0.16-0.298,0.333c0.265,4.742,0.527,9.484,0.793,14.226c0.009,0.174,0.157,0.308,0.332,0.298l0,0
	c0.174-0.009,0.309-0.16,0.299-0.333c-0.265-4.742-0.528-9.484-0.794-14.226C84.04,20.184,83.892,20.05,83.717,20.06L83.717,20.06z
	 M81.89,18.231c0.008-0.174-0.126-0.323-0.299-0.333c-4.741-0.264-9.485-0.528-14.226-0.792c-0.174-0.01-0.324,0.124-0.334,0.298
	l0,0c-0.01,0.174,0.125,0.324,0.298,0.333c4.742,0.264,9.484,0.528,14.226,0.792C81.728,18.539,81.88,18.405,81.89,18.231
	L81.89,18.231L81.89,18.231z M75.241,28.525L75.241,28.525c-0.159,0.009-0.282,0.147-0.274,0.307
	c0.244,4.376,0.488,8.752,0.732,13.128c0.008,0.161,0.146,0.283,0.307,0.275l0,0c0.16-0.009,0.284-0.147,0.274-0.308
	c-0.243-4.375-0.486-8.752-0.73-13.128C75.541,28.64,75.402,28.517,75.241,28.525L75.241,28.525z M73.423,26.706
	c0.01-0.16-0.115-0.298-0.274-0.307c-4.376-0.244-8.752-0.487-13.128-0.731c-0.16-0.009-0.299,0.115-0.308,0.275l0,0
	c-0.009,0.16,0.115,0.299,0.275,0.307c4.376,0.244,8.752,0.487,13.128,0.731C73.275,26.99,73.414,26.866,73.423,26.706
	L73.423,26.706L73.423,26.706z M66.768,36.991L66.768,36.991c-0.146,0.008-0.26,0.135-0.252,0.282
	c0.224,4.01,0.447,8.02,0.67,12.029c0.009,0.147,0.135,0.26,0.282,0.252l0,0c0.146-0.009,0.26-0.135,0.252-0.282
	c-0.223-4.01-0.446-8.02-0.67-12.03C67.042,37.096,66.915,36.983,66.768,36.991L66.768,36.991z M64.958,35.181
	c0.008-0.147-0.105-0.274-0.252-0.282c-4.011-0.223-8.021-0.446-12.03-0.669c-0.147-0.008-0.273,0.105-0.282,0.252l0,0
	c-0.008,0.147,0.105,0.273,0.252,0.282c4.011,0.224,8.021,0.447,12.03,0.669C64.823,35.441,64.949,35.327,64.958,35.181
	L64.958,35.181L64.958,35.181z M58.294,45.457L58.294,45.457c-0.134,0.007-0.236,0.122-0.229,0.256l0.608,10.931
	c0.008,0.135,0.123,0.236,0.257,0.23l0,0c0.133-0.008,0.236-0.123,0.229-0.257L58.55,45.686
	C58.542,45.552,58.428,45.449,58.294,45.457L58.294,45.457z M56.491,43.655c0.008-0.133-0.095-0.249-0.229-0.256l-10.932-0.608
	c-0.134-0.008-0.248,0.096-0.255,0.229l0,0c-0.009,0.133,0.095,0.248,0.228,0.256l10.933,0.608
	C56.369,43.891,56.484,43.788,56.491,43.655L56.491,43.655z"/>
<path fill-rule="evenodd" clip-rule="evenodd" fill="#231F20" d="M2.692,84.507c0,2.453,0,4.561-0.133,5.68
	c-0.106,0.773-0.24,1.359-0.773,1.467c-0.24,0.053-0.56,0.106-0.96,0.106c-0.32,0-0.427,0.081-0.427,0.214
	c0,0.186,0.187,0.266,0.533,0.266c0.533,0,1.227-0.053,1.84-0.053c0.64-0.027,1.227-0.027,1.52-0.027c0.401,0,1.2,0.027,2,0.08
	c0.773,0.027,1.547,0.08,1.866,0.08c4.906,0,7.12-2.959,7.12-5.812c0-3.119-2.667-5.012-4.854-5.759
	c1.467-1.173,2.72-2.479,2.72-4.666c0-1.413-0.853-3.999-5.679-3.999c-0.907,0-1.946,0.08-3.253,0.08
	c-0.534,0-2.214-0.08-3.627-0.08C0.187,72.083,0,72.136,0,72.323c0,0.186,0.16,0.239,0.453,0.239c0.373,0,0.826,0.026,1.04,0.08
	c0.88,0.187,1.093,0.613,1.146,1.52c0.053,0.854,0.053,1.601,0.053,5.653V84.507L2.692,84.507z M5.893,73.683
	c0-0.293,0.054-0.4,0.24-0.453c0.266-0.053,0.506-0.053,0.879-0.053c2.294,0,3.333,2.346,3.333,4.132c0,1.307-0.4,2.267-1.093,2.826
	c-0.453,0.4-1.04,0.507-1.92,0.507c-0.613,0-1.013-0.027-1.253-0.08c-0.106-0.026-0.187-0.08-0.187-0.293V73.683L5.893,73.683z
	 M11.998,87.708c0,2.771-2.026,3.412-3.226,3.412c-0.614,0-1.227-0.027-1.947-0.32c-0.853-0.346-0.933-0.8-0.933-2.559v-6.32
	c0-0.133,0.054-0.186,0.159-0.186c0.4,0,0.667,0,1.146,0.026c1.04,0.054,1.653,0.239,2.214,0.64
	C11.438,83.814,11.998,86.054,11.998,87.708z"/>
<path fill-rule="evenodd" clip-rule="evenodd" fill="#231F20" d="M27.367,92.613c6.771,0,11.038-4.825,11.038-10.932
	s-4.133-9.972-10.771-9.972c-7.999,0-11.013,5.893-11.013,10.451C16.621,86.881,19.715,92.613,27.367,92.613L27.367,92.613z
	 M28.486,91.28c-5.119,0-8.185-4.399-8.185-9.945c0-6.639,3.492-8.346,6.559-8.346c4.372,0,7.812,3.707,7.812,9.68
	C34.673,90.374,30.354,91.28,28.486,91.28z"/>
<path fill-rule="evenodd" clip-rule="evenodd" fill="#231F20" d="M43.704,77.495h0.08c0.479,0.507,3.44,3.76,6.341,6.639
	c2.773,2.747,6.187,6.24,7.861,7.84c0.294,0.293,0.614,0.586,0.906,0.586c0.24,0,0.348-0.24,0.348-0.826l0.293-16.824
	c0.026-1.493,0.24-2.053,0.986-2.267c0.32-0.08,0.534-0.08,0.801-0.08c0.319,0,0.479-0.08,0.479-0.239
	c0-0.214-0.268-0.24-0.613-0.24c-1.308,0-2.319,0.08-2.613,0.08c-0.56,0-1.84-0.08-3.222-0.08c-0.4,0-0.693,0.026-0.693,0.24
	c0,0.159,0.106,0.239,0.426,0.239c0.374,0,1.014,0,1.41,0.16c0.64,0.267,0.88,0.773,0.906,2.399l0.267,11.973h-0.134
	c-0.453-0.428-4.048-4.267-5.861-6.08c-3.889-3.866-7.94-8.133-8.262-8.479c-0.457-0.48-0.696-0.826-0.99-0.826
	c-0.267,0-0.347,0.373-0.347,0.906l-0.24,15.705c-0.026,2.318-0.133,3.092-0.826,3.305c-0.373,0.107-0.853,0.134-1.199,0.134
	c-0.267,0-0.427,0.054-0.427,0.214c0,0.24,0.24,0.266,0.586,0.266c1.387,0,2.64-0.08,2.88-0.08c0.511,0,1.577,0.08,3.311,0.08
	c0.373,0,0.613-0.053,0.613-0.266c0-0.16-0.159-0.214-0.453-0.214c-0.427,0-0.934-0.026-1.388-0.187
	c-0.532-0.187-0.879-0.88-0.933-2.959L43.704,77.495z"/>
<path fill-rule="evenodd" clip-rule="evenodd" fill="#231F20" d="M66.263,84.507c0,2.453,0,4.561-0.133,5.68
	c-0.106,0.773-0.24,1.359-0.773,1.467c-0.239,0.053-0.56,0.106-0.959,0.106c-0.32,0-0.427,0.081-0.427,0.214
	c0,0.186,0.186,0.266,0.532,0.266c0.533,0,1.227-0.053,1.841-0.053c0.64-0.027,1.227-0.027,1.52-0.027c0.8,0,1.626,0.027,2.772,0.08
	c1.146,0.027,2.612,0.08,4.612,0.08c1.013,0,1.254,0,1.439-0.693c0.134-0.533,0.348-2.346,0.348-2.959c0-0.267,0-0.48-0.214-0.48
	c-0.187,0-0.24,0.107-0.294,0.4c-0.186,1.094-0.506,1.653-1.198,1.973c-0.693,0.32-1.814,0.32-2.508,0.32
	c-2.719,0-3.146-0.4-3.198-2.24c-0.027-0.773,0-3.226,0-4.133v-2.105c0-0.16,0.026-0.267,0.159-0.267
	c0.641,0,3.28,0.026,3.785,0.079c0.988,0.107,1.361,0.508,1.494,1.041c0.08,0.346,0.08,0.693,0.107,0.959
	c0,0.134,0.054,0.24,0.239,0.24c0.24,0,0.24-0.293,0.24-0.506c0-0.188,0.08-1.254,0.106-1.787c0.107-1.359,0.214-1.786,0.214-1.945
	c0-0.16-0.081-0.214-0.188-0.214c-0.133,0-0.239,0.133-0.427,0.347c-0.238,0.266-0.64,0.346-1.279,0.399
	c-0.614,0.054-3.68,0.054-4.266,0.054c-0.16,0-0.187-0.107-0.187-0.294v-6.745c0-0.188,0.053-0.267,0.187-0.267
	c0.533,0,3.332,0.054,3.786,0.106c1.333,0.16,1.599,0.48,1.786,0.961c0.133,0.319,0.16,0.771,0.16,0.959
	c0,0.24,0.054,0.373,0.239,0.373c0.188,0,0.24-0.16,0.267-0.293c0.055-0.32,0.108-1.494,0.135-1.76
	c0.078-1.227,0.212-1.547,0.212-1.733c0-0.134-0.026-0.24-0.159-0.24s-0.294,0.081-0.427,0.106c-0.213,0.054-0.64,0.107-1.146,0.16
	c-0.506,0.027-5.813,0.027-6.665,0.027c-0.374,0-0.987-0.027-1.681-0.054c-0.666,0-1.44-0.026-2.16-0.026
	c-0.399,0-0.586,0.053-0.586,0.24c0,0.186,0.16,0.239,0.453,0.239c0.374,0,0.827,0.026,1.04,0.08c0.88,0.187,1.093,0.613,1.146,1.52
	c0.053,0.854,0.053,1.601,0.053,5.653V84.507z"/>
<path fill-rule="evenodd" clip-rule="evenodd" fill="#231F20" d="M84.992,82.349c0-0.188,0.053-0.24,0.188-0.24
	c0.451,0,3.276,0,3.944,0.08c0.827,0.106,1.226,0.586,1.36,0.959c0.106,0.32,0.16,0.641,0.16,0.826c0,0.188,0.053,0.374,0.213,0.374
	c0.267,0,0.267-0.267,0.267-0.507c0-0.187,0.053-1.413,0.106-1.946c0.079-0.826,0.214-1.493,0.214-1.653s-0.054-0.239-0.161-0.239
	c-0.159,0-0.213,0.106-0.347,0.267c-0.267,0.346-0.64,0.453-1.146,0.479c-0.373,0.026-0.746,0.026-1.2,0.026l-3.411,0.027
	c-0.163,0-0.188-0.08-0.188-0.24v-6.666c0-0.293,0.078-0.373,0.238-0.373l4.106,0.08c1.013,0.026,1.573,0.427,1.761,0.8
	c0.16,0.374,0.16,0.8,0.16,1.014c0.025,0.293,0.08,0.427,0.268,0.427c0.186,0,0.238-0.16,0.264-0.373
	c0.055-0.32,0.107-1.895,0.135-2.16c0.079-0.693,0.213-1.014,0.213-1.2c0-0.134-0.081-0.24-0.188-0.24
	c-0.132,0-0.267,0.106-0.424,0.16c-0.268,0.08-0.589,0.08-1.095,0.106c-0.613,0.027-6.025,0.027-7.039,0.027
	c-0.373,0-0.986-0.027-1.68-0.054c-0.693,0-1.467-0.026-2.16-0.026c-0.399,0-0.614,0.053-0.614,0.266
	c0,0.16,0.188,0.214,0.455,0.214c0.373,0,0.827,0.026,1.04,0.08c0.878,0.187,1.092,0.613,1.146,1.52
	c0.053,0.854,0.053,1.601,0.053,5.653v4.691c0,2.561,0,4.561-0.133,5.68c-0.105,0.773-0.24,1.359-0.772,1.467
	c-0.24,0.053-0.561,0.106-0.96,0.106c-0.293,0-0.401,0.081-0.401,0.214c0,0.213,0.188,0.266,0.561,0.266
	c1.013,0,2.693-0.08,3.386-0.08c0.693,0,2.374,0.08,4.055,0.08c0.398,0,0.585-0.08,0.585-0.266c0-0.133-0.105-0.214-0.453-0.214
	c-0.373,0-0.96-0.054-1.333-0.106c-0.799-0.107-0.96-0.693-1.04-1.467c-0.132-1.119-0.132-3.119-0.132-5.68V82.349z"/>
<path fill-rule="evenodd" clip-rule="evenodd" fill="#231F20" d="M96.735,84.507c0,2.588,0,4.693-0.135,5.812
	c-0.081,0.773-0.24,1.227-0.774,1.334c-0.238,0.053-0.559,0.106-0.959,0.106c-0.319,0-0.427,0.081-0.427,0.214
	c0,0.186,0.186,0.266,0.533,0.266c1.066,0,2.746-0.08,3.36-0.08c0.721,0,2.399,0.08,4.158,0.08c0.294,0,0.508-0.08,0.508-0.266
	c0-0.133-0.135-0.214-0.427-0.214c-0.401,0-0.986-0.054-1.36-0.106c-0.8-0.107-0.985-0.586-1.065-1.307
	c-0.107-1.146-0.107-3.252-0.107-5.84v-4.691c0-4.053,0-4.8,0.053-5.653c0.055-0.933,0.267-1.386,0.986-1.52
	c0.321-0.054,0.534-0.08,0.801-0.08c0.268,0,0.427-0.054,0.427-0.267c0-0.16-0.214-0.213-0.561-0.213
	c-1.013,0-2.585,0.08-3.252,0.08c-0.774,0-2.454-0.08-3.467-0.08c-0.427,0-0.641,0.053-0.641,0.213c0,0.213,0.161,0.267,0.427,0.267
	c0.32,0,0.668,0.026,0.96,0.106c0.587,0.134,0.854,0.587,0.908,1.493c0.054,0.854,0.054,1.601,0.054,5.653V84.507z"/>
<path fill-rule="evenodd" clip-rule="evenodd" fill="#231F20" d="M109.73,92.613c1.414,0,2.906-0.239,4.239-1.093
	c1.919-1.254,2.505-3.094,2.505-4.64c0-2.533-1.146-4.373-4.371-6.8l-0.747-0.559c-2.213-1.68-2.827-2.613-2.827-3.84
	c0-1.6,1.201-2.746,3.174-2.746c1.732,0,2.505,0.799,2.905,1.306c0.56,0.694,0.693,1.521,0.693,1.76c0,0.32,0.079,0.48,0.267,0.48
	c0.214,0,0.294-0.214,0.294-0.8c0-2.08,0.107-2.854,0.107-3.2c0-0.187-0.135-0.267-0.373-0.319
	c-0.693-0.188-1.814-0.453-3.547-0.453c-3.708,0-6.16,2.105-6.16,5.039c0,2.159,1.013,4.025,3.946,6.318l1.227,0.96
	c2.214,1.733,2.612,2.96,2.612,4.267c0,1.413-1.173,3.039-3.571,3.039c-1.654,0-3.227-0.72-3.812-2.693
	c-0.135-0.453-0.241-1.012-0.241-1.359c0-0.213-0.026-0.453-0.267-0.453c-0.214,0-0.292,0.293-0.32,0.693
	c-0.025,0.428-0.132,2.027-0.132,3.493c0,0.587,0.079,0.72,0.506,0.906C106.983,92.427,108.185,92.613,109.73,92.613z"/>
<path fill-rule="evenodd" clip-rule="evenodd" fill="#231F20" d="M124.832,80.562c-0.081,0-0.16-0.054-0.16-0.187v-0.56
	c0-4.053,0-4.8,0.053-5.653c0.055-0.933,0.268-1.386,0.988-1.52c0.319-0.054,0.559-0.08,0.771-0.08c0.32,0,0.48-0.054,0.48-0.239
	c0-0.188-0.188-0.24-0.559-0.24c-1.041,0-2.722,0.08-3.361,0.08c-0.72,0-2.399-0.08-3.839-0.08c-0.374,0-0.561,0.053-0.561,0.24
	c0,0.186,0.161,0.239,0.454,0.239c0.374,0,0.826,0.026,1.04,0.08c0.88,0.187,1.093,0.613,1.146,1.52
	c0.053,0.854,0.053,1.601,0.053,5.653v4.691c0,2.453,0,4.561-0.134,5.68c-0.106,0.773-0.239,1.359-0.772,1.467
	c-0.24,0.053-0.561,0.106-0.959,0.106c-0.322,0-0.429,0.081-0.429,0.214c0,0.186,0.188,0.266,0.535,0.266
	c1.065,0,2.745-0.08,3.358-0.08c0.746,0,2.427,0.08,4.16,0.08c0.32,0,0.533-0.08,0.533-0.266c0-0.133-0.135-0.214-0.427-0.214
	c-0.4,0-0.986-0.054-1.359-0.106c-0.801-0.107-0.96-0.693-1.041-1.439c-0.133-1.146-0.133-3.254-0.133-5.707v-2.346
	c0-0.133,0.079-0.16,0.16-0.16h10.185c0.08,0,0.159,0.054,0.159,0.16v2.346c0,2.453,0,4.561-0.132,5.68
	c-0.106,0.773-0.241,1.359-0.773,1.467c-0.24,0.053-0.56,0.106-0.96,0.106c-0.32,0-0.427,0.081-0.427,0.214
	c0,0.186,0.188,0.266,0.561,0.266c1.039,0,2.719-0.08,3.333-0.08c0.746,0,2.427,0.08,4.158,0.08c0.319,0,0.533-0.08,0.533-0.266
	c0-0.133-0.133-0.214-0.427-0.214c-0.398,0-0.985-0.054-1.358-0.106c-0.802-0.107-0.959-0.693-1.04-1.439
	c-0.133-1.146-0.133-3.254-0.133-5.707v-4.691c0-4.053,0-4.8,0.052-5.653c0.055-0.933,0.269-1.386,0.986-1.52
	c0.32-0.054,0.562-0.08,0.774-0.08c0.32,0,0.479-0.054,0.479-0.239c0-0.188-0.187-0.24-0.56-0.24c-1.039,0-2.72,0.08-3.359,0.08
	c-0.721,0-2.4-0.08-3.84-0.08c-0.373,0-0.56,0.053-0.56,0.24c0,0.186,0.16,0.239,0.453,0.239c0.373,0,0.827,0.026,1.038,0.08
	c0.881,0.187,1.094,0.613,1.147,1.52c0.053,0.854,0.053,1.601,0.053,5.653v0.56c0,0.133-0.079,0.187-0.159,0.187H124.832z"/>
<path fill-rule="evenodd" clip-rule="evenodd" fill="#231F20" d="M46.054,101.981c-0.412,0.648-0.953,1.143-1.625,1.484
	c-0.668,0.342-1.433,0.513-2.286,0.513c-1.271,0-2.319-0.358-3.144-1.079c-0.822-0.721-1.233-1.636-1.233-2.741
	c0.001-1.108,0.412-2.023,1.233-2.751c0.826-0.727,1.875-1.088,3.145-1.088c0.794,0,1.512,0.148,2.157,0.445
	c0.646,0.296,1.163,0.716,1.56,1.257l-0.9,0.625c-0.298-0.411-0.691-0.729-1.181-0.952s-1.033-0.333-1.633-0.333
	c-0.93,0-1.696,0.264-2.305,0.794c-0.607,0.525-0.912,1.189-0.912,1.985s0.303,1.46,0.914,1.985c0.61,0.53,1.378,0.793,2.302,0.793
	c0.643,0,1.213-0.127,1.704-0.379c0.493-0.254,0.924-0.648,1.298-1.184L46.054,101.981z"/>
<path fill-rule="evenodd" clip-rule="evenodd" fill="#231F20" d="M51.848,100.957h2.83l-1.405-2.776L51.848,100.957L51.848,100.957z
	 M49.221,103.753l3.688-7.242h0.712l3.711,7.242h-1.212l-0.94-1.841h-3.824l-0.936,1.841H49.221z"/>
<path fill-rule="evenodd" clip-rule="evenodd" fill="#231F20" d="M61.89,99.532h4.135c0.385,0,0.683-0.084,0.888-0.254
	c0.207-0.172,0.311-0.414,0.311-0.733c0-0.31-0.098-0.55-0.298-0.72c-0.197-0.172-0.48-0.256-0.849-0.256h-4.186L61.89,99.532
	L61.89,99.532z M61.89,100.592v3.161h-1.129l0.002-7.242h5.263c0.747,0,1.326,0.176,1.739,0.529
	c0.414,0.354,0.622,0.852,0.622,1.491c-0.001,0.604-0.206,1.101-0.617,1.484c-0.414,0.386-0.955,0.576-1.623,0.576H61.89z"/>
<rect x="72.335" y="96.493" fill-rule="evenodd" clip-rule="evenodd" fill="#231F20" width="1.146" height="7.26"/>
<polygon fill-rule="evenodd" clip-rule="evenodd" fill="#231F20" points="80.033,103.753 80.035,97.519 76.979,97.519 
	76.979,96.511 84.221,96.511 84.221,97.519 81.164,97.519 81.161,103.753 "/>
<path fill-rule="evenodd" clip-rule="evenodd" fill="#231F20" d="M88.293,100.957h2.831l-1.405-2.776L88.293,100.957L88.293,100.957
	z M85.666,103.753l3.689-7.242h0.71l3.713,7.242h-1.213l-0.941-1.841h-3.823l-0.936,1.841H85.666z"/>
<polygon fill-rule="evenodd" clip-rule="evenodd" fill="#231F20" points="97.188,103.753 97.191,96.511 98.32,96.511 98.32,102.711 
	103.702,102.711 103.702,103.753 "/>
<rect x="106.438" y="100.148" fill-rule="evenodd" clip-rule="evenodd" fill="#231F20" width="32.072" height="0.908"/>
<rect x="2.692" y="100.148" fill-rule="evenodd" clip-rule="evenodd" fill="#231F20" width="32.071" height="0.908"/>
</svg>
