<?xml version="1.0" encoding="utf-8"?>
<!-- Generator: Adobe Illustrator 15.1.0, SVG Export Plug-In  -->
<!DOCTYPE svg PUBLIC "-//W3C//DTD SVG 1.1//EN" "http://www.w3.org/Graphics/SVG/1.1/DTD/svg11.dtd" [
	<!ENTITY ns_flows "http://ns.adobe.com/Flows/1.0/">
]>
<svg version="1.1"
	 xmlns="http://www.w3.org/2000/svg" xmlns:xlink="http://www.w3.org/1999/xlink" xmlns:a="http://ns.adobe.com/AdobeSVGViewerExtensions/3.0/"
	 x="0px" y="0px" width="28px" height="105px" viewBox="-1.306 -2.905 28 105"
	 overflow="visible" enable-background="new -1.306 -2.905 28 105" xml:space="preserve">
<defs>
</defs>
<path fill="#FFFFFF" d="M7.426,77.323c1.557,0,2.83,1.271,2.83,2.828v2.771h7.714c1.557,0,2.83,1.272,2.83,2.828
	c0,1.565-1.273,2.831-2.83,2.831h-7.714v4.082c0,0.326,0.096,0.514,0.402,0.514h7.312c1.557,0,2.83,1.266,2.83,2.828
	c0,1.557-1.273,2.83-2.83,2.83h-6.999c-0.075,0-0.143-0.007-0.209-0.007c-4.156-0.11-6.173-2.741-6.173-6.345
	c0.008-0.037,0.008-0.074,0.008-0.12V80.151C4.597,78.594,5.862,77.323,7.426,77.323L7.426,77.323z"/>
<path fill="#FFFFFF" d="M14.947,3.938h1.944V0h-4.217c-2.562,0-4.639,2.077-4.639,4.64v2.356H4.708v3.937h3.328V23.06h5.174V10.933
	h3.682V6.996H13.21V5.674C13.21,4.715,13.988,3.938,14.947,3.938z"/>
<path fill-rule="evenodd" clip-rule="evenodd" fill="#FFFFFF" d="M5.765,60.218V43.843H0.321v16.375H5.765L5.765,60.218z
	 M3.044,41.608c1.896,0,3.079-1.258,3.079-2.829c-0.037-1.606-1.183-2.829-3.045-2.829C1.217,35.951,0,37.173,0,38.779
	c0,1.571,1.183,2.829,3.008,2.829H3.044L3.044,41.608z"/>
<path fill-rule="evenodd" clip-rule="evenodd" fill="#FFFFFF" d="M8.776,60.218h5.442v-9.145c0-0.489,0.035-0.978,0.179-1.327
	c0.393-0.978,1.289-1.991,2.791-1.991c1.971,0,2.758,1.502,2.758,3.703v8.76h5.442v-9.389c0-5.029-2.685-7.37-6.267-7.37
	c-2.936,0-4.224,1.642-4.94,2.759h0.037v-2.375H8.776C8.847,45.379,8.776,60.218,8.776,60.218L8.776,60.218z"/>
</svg>
